<?xml version="1.0" encoding="UTF-8"?>
<svg id="Layer_2" data-name="Layer 2" xmlns="http://www.w3.org/2000/svg" viewBox="0 0 996.81 870.19">
  <defs>
    <style>
      .cls-1 {
        fill: #036;
      }

      .cls-2 {
        fill: #3cf;
      }

      .cls-3 {
        fill: #fff;
      }

      .cls-4 {
        fill: #0c9;
      }
    </style>
  </defs>
  <g id="Favicon">
    <path class="cls-1" d="M498.41,65.26c-204.25,0-369.83,165.58-369.83,369.83s165.58,369.83,369.83,369.83,369.83-165.58,369.83-369.83S702.66,65.26,498.41,65.26Z"/>
    <path class="cls-1" d="M498.41,0C258.11,0,63.31,194.8,63.31,435.1s194.8,435.09,435.09,435.09,435.1-194.8,435.1-435.09S738.7,0,498.41,0ZM498.59,804.77c-204.17,0-369.68-165.51-369.68-369.68,0-111.23,49.13-210.99,126.87-278.76,64.95-56.62,149.87-90.92,242.81-90.92,86.34,0,165.77,29.6,228.69,79.21,85.86,67.69,140.99,172.64,140.99,290.47,0,204.17-165.51,369.68-369.68,369.68Z"/>
    <rect class="cls-1" x="0" y="318.85" width="996.81" height="232.49" rx="114.46" ry="114.46"/>
    <path id="Land_Sea" data-name="Land &amp;amp; Sea" class="cls-3" d="M167.63,551.03c-10.11,0-17.01,10.2-13.3,19.6,54.15,137.04,187.79,233.98,344.08,233.98s289.93-96.95,344.08-233.98c3.72-9.4-3.19-19.6-13.3-19.6H167.63Z"/>
    <path id="Sky" class="cls-3" d="M829.18,319.16c10.11,0,17.01-10.2,13.3-19.6-54.15-137.04-187.79-233.98-344.08-233.98s-289.93,96.95-344.08,233.98c-3.72,9.4,3.19,19.6,13.3,19.6h661.55Z"/>
    <g id="Land">
      <path class="cls-2" d="M695.24,627.1c-105.48-20.61-153.61,82.01-217.91,56.04-24.31-21.41,3.72-58.6-71.59-82.01-89.25-24.7-127.31,42.04-183.07,79.93,13.41,15.05,28,28.99,43.65,41.68,37.39-24.48,37.73-54.07,94.11-59.99,4.15-.23,17.35-2.26,37.04,7.19,16.14,7.75,10.59,26.65,26.2,53.09,17.25,28.67,68.44,27.58,90.88,27.87,39.72-5.2,42.6-14.77,73.77-33.07,79.16-41.4,97.89-26.31,146.89,1.02,17.17-14.4,33.02-30.32,47.36-47.58-26.33-18.25-49.86-36.79-87.34-44.17Z"/>
      <path class="cls-2" d="M588.34,717.84c-31.17,18.3-40.86,19.41-80.58,24.61-23.88,2.84-69.76,4.28-79.1-30.13-10.37-22.63-7.83-32.71-34.19-44.79-19.86-9.1-29.88-4.99-34.03-4.75-56.18,5.81-56.77,35.5-94.11,59.99,126.24,109.88,344.64,107.95,468.9-3.9-48.93-27.32-67.82-42.4-146.89-1.02Z"/>
    </g>
    <path id="Sky_2" data-name="Sky 2" class="cls-4" d="M655.69,194.47c-12.99.72-20.29-12.01-40.22-7.49-33.08,5.71-57.22,35.15-93.04,37.72-48.36-2.91-79.39-68.99-119.74-72.08-4.01-.47-7.28-3.4-27.04,4.65-61.71,22.9-80.17,22.78-119.75-.84-11.12,9.69-21.66,20.03-31.55,30.97,39.55,38.69,73.17,39.86,143.72,14.85,21.23-8.05,24.74-5.12,29.05-4.65,43.48,3.18,76.72,69.18,128.65,72.08,38.51-2.58,64.5-32.04,99.96-37.71,21.41-4.53,29.26,8.21,43.21,7.49,30-1.55,69.18-37.7,90.35-66.19-10.15-10.11-20.88-19.62-32.15-28.5-20.4,24.3-48.76,48.44-71.47,49.71Z"/>
    <path id="Sky-2" data-name="Sky" class="cls-4" d="M255.9,156.43c39.34,23.58,58.28,23.74,119.75.84,19.76-8.05,23.03-5.12,27.04-4.65,40.37,3.1,71.36,69.16,119.74,72.08,35.82-2.56,59.95-32,93.04-37.72,19.93-4.53,27.23,8.21,40.22,7.49,22.71-1.26,51.07-25.41,71.47-49.71-128.43-108.75-348.81-102.99-471.26,11.66Z"/>
    <g id="Text">
      <path class="cls-3" d="M148.96,416.85c.51.47,1.31.44,1.79-.07,4.34-4.66,8.33-8.86,12.2-13.17,7.33-8.15,14.57-16.37,21.87-24.54,1.27-1.42,2.53-2.89,4.01-4.06,5.62-4.48,11.83-7.37,18.91-3.94,6.97,3.38,9.95,9.68,10.07,17.14.2,12.07.06,24.15,0,36.22-.1,20.65-.25,41.31-.38,61.96-.07,10.4-6.83,17.7-16.46,17.79-9.32.09-17.18-7.96-17.12-18.02.11-18.27.48-36.53.73-54.79,0,0,0-.01,0-.02.01-1.1-1.32-1.66-2.12-.92-.58.54-1.07,1-1.53,1.51-6.3,6.93-11.51,15.12-19.03,20.67-4.19,3.09-7.88,5.57-12.43,6.14-4.48.56-6.63.17-11.04-4.11-6.77-7.43-13.63-14.78-20.98-22.71-.75-.81-2.1-.34-2.19.75-.06.69-.1,1.3-.1,1.9,0,17.48.18,34.96-.02,52.43-.15,13-12.42,20.14-23.52,13.77-6.33-3.63-8.12-9.83-8.15-16.7-.08-25.26-.17-50.52-.22-75.79-.01-5.08-.12-10.18.18-15.25.85-14.01,14.51-21.62,26.48-14.24"/>
      <path class="cls-3" d="M852.42,454.92c0,10.36,0,20.28,0,30.2-.01,10.5-6.13,17.63-15.54,18.14-8.62.46-17.69-7.61-17.84-17.09-.4-26.21-.44-52.44-.25-78.66.05-6.54,4.16-11.3,10.07-13.95,6.02-2.7,11.49-.51,15.68,3.76,8.79,8.94,17.14,18.31,25.65,27.52,3.07,3.32,6.06,6.71,10.12,9.6,0-6.74-.06-13.49.03-20.23.04-2.69.09-5.44.69-8.04,2.01-8.57,9.44-14.18,17.65-13.61,7.66.54,14.55,7.53,14.67,16.2.32,23.67.27,47.35.05,71.03-.03,3.16-1.31,6.65-3,9.38-5.61,9.03-17.1,10.44-24.4,2.74-10.71-11.29-20.92-23.05-31.35-34.61-.69-.76-1.4-1.5-2.24-2.4Z"/>
      <path class="cls-3" d="M371.38,480.66c0,9.52.06,18.71-.02,27.9-.08,10.46-5.82,16.69-15.31,16.8-8.88.1-17.48-7.73-17.46-16.77.08-33.35.34-66.7.83-100.04.14-9.66,6.99-15.91,16.58-16,11.28-.11,22.56-.19,33.83.03,23.79.46,42.64,17.85,45.18,41.43,2.32,21.61-14.87,43.15-36.53,45.31-8.81.88-17.7.9-27.1,1.34ZM371.46,451.6c6.63,0,12.65.38,18.6-.09,8.04-.64,14.12-7.43,13.94-14.78-.19-8.14-6.82-15.48-14.78-15.86-4.89-.24-9.83.02-14.7.47-1.1.1-2.9,1.9-2.93,2.95-.24,8.85-.13,17.7-.13,27.31Z"/>
      <path class="cls-3" d="M643.7,443.85c.04,34.31-31.85,62.8-64.06,57.14-3.09-.54-6.12-1.65-9.03-2.86-3.17-1.31-5-3.79-4.95-7.43.26-18.71-15.79-30.24-29.25-33.67-4.44-1.13-6.16-2.94-6.67-7.47-3.16-27.85,16.15-53.36,45.78-60.07,33.92-7.68,68.14,19.6,68.18,54.35ZM586.5,468.1c13.85-.16,25.34-11.16,25.15-24.07-.19-13.18-12.1-24.48-25.61-24.31-12.97.16-23.65,10.95-23.54,23.8.12,13.35,11.24,24.73,24,24.58Z"/>
      <path class="cls-3" d="M460.54,421.48c0-18.59.72-37.18.73-55.77,0-1.59.01-3.18.17-4.76.87-8.79,6.78-14.73,14.96-15.1,9.18-.41,16.44,4.89,18.12,13.47.54,2.78.65,5.68.66,8.53.07,31.15.08,62.29.11,93.44,0,6.74.3,7.05,6.89,7.1,8.74.08,17.53-.38,26.2.4,5.36.48,10.98,2.01,15.73,4.5,6.25,3.28,8.87,10.65,7.43,16.69-1.61,6.79-7.13,12.12-14.37,12.74-7.1.61-14.28.47-21.43.51-10.01.06-20.02.07-30.03-.08-16.84-.25-25.14-8.69-25.15-25.43-.02-18.75,0-37.5,0-56.26.24,0-.24,0,0,0Z"/>
      <path class="cls-3" d="M277.24,392.38c.07,0,.14,0,.21,0,7.81.36,13.43,3.83,16.5,10.59,5.04,11.11,9.73,22.39,14.49,33.63,6.32,14.9,12.69,29.79,18.8,44.77,4.2,10.29,1.48,18.1-7.17,21.91-7.02,3.09-17.07-.66-21.12-8.52-2.55-4.94-7.68-7.97-13.22-7.51-7.46.61-14.95.47-22.42-.09-3.71-.28-5.25.46-6.45,3.68-2.71,7.29-6.86,11.54-12.34,12.95-11.22,2.89-21.26-8.02-17.99-19.14.47-1.59,1.01-3.15,1.65-4.67,10.07-23.99,20.14-47.97,30.31-71.92,3.04-7.15,6.73-13.85,15.42-15.42,1.2-.22,2.43-.21,3.34-.27ZM279.1,440.17c-.37-.95-1.68-.85-2.03.02-4.18,9.91-4.62,10.96-7.29,17.27-.47,1.11.34,2.34,1.55,2.34,3.75,0,8.59,0,11.32,0,2.21,0,3.81-2.28,2.91-4.47"/>
      <path class="cls-3" d="M703.01,453.06c4.34-8.95,8.66-17.92,13.03-26.86,4.18-8.55,8.27-17.16,12.7-25.58,3.11-5.9,8.16-9.19,15.03-9.18,9.64.01,16.86,8.75,14.33,18.05-1.4,5.15-3.85,10.06-6.2,14.89-10.29,21.11-20.72,42.16-31.13,63.21-1.55,3.13-3.1,6.27-4.93,9.23-7.11,11.53-22.34,11.4-28.56-.72-9.93-19.34-19.12-39.05-28.65-58.59-3.48-7.13-7.06-14.21-10.54-21.34-4.74-9.72-2.67-17.89,5.66-22.56,7.85-4.4,18.09-1.6,22.84,7.27,5.61,10.47,10.28,21.45,15.36,32.2,3.16,6.7,6.34,13.39,9.51,20.08.51-.04,1.02-.08,1.54-.12Z"/>
      <path class="cls-3" d="M771.13,447.83c0-10.96-.03-21.92.03-32.88.01-2.37.08-4.8.61-7.09,2.12-9.21,8.98-15.13,16.77-14.72,8.6.46,15.74,7.36,16.87,16.61.42,3.45.36,6.98.38,10.47.14,19.86.25,39.71.33,59.57,0,2.22-.11,4.45-.35,6.65-1.16,10.5-7.73,16.99-17.08,16.96-9.04-.03-16.9-7.5-17.47-17.45-.48-8.23-.11-16.51-.11-24.77,0-4.45,0-8.9,0-13.34h.02Z"/>
      <path class="cls-3" d="M787.86,381.95c-10.11-.05-17.75-7.71-17.81-17.84-.06-10.29,7.89-19.19,17.21-19.27,9.81-.09,19.4,9.23,19.28,18.73-.13,10.16-8.55,18.44-18.67,18.38Z"/>
    </g>
  </g>
</svg>