<?xml version="1.0" encoding="UTF-8"?>
<svg id="New_design" data-name="New design" xmlns="http://www.w3.org/2000/svg" xmlns:xlink="http://www.w3.org/1999/xlink" viewBox="0 0 1100 1100">
  <defs>
    <style>
      .cls-1 {
        fill: #036;
      }

      .cls-2 {
        fill: url(#linear-gradient-4);
      }

      .cls-3 {
        fill: url(#linear-gradient-3);
      }

      .cls-4 {
        fill: url(#linear-gradient-2);
      }

      .cls-5 {
        fill: url(#linear-gradient);
      }

      .cls-6 {
        fill: #fff;
      }
    </style>
    <linearGradient id="linear-gradient" x1="554.43" y1="883.86" x2="554.43" y2="710.64" gradientUnits="userSpaceOnUse">
      <stop offset="0" stop-color="#01b379"/>
      <stop offset=".2" stop-color="#06bb82"/>
      <stop offset=".52" stop-color="#15d29b"/>
      <stop offset=".93" stop-color="#2ef8c4"/>
      <stop offset=".99" stop-color="#3fc"/>
    </linearGradient>
    <linearGradient id="linear-gradient-2" x1="552.48" y1="954.08" x2="552.48" y2="770.68" gradientUnits="userSpaceOnUse">
      <stop offset="0" stop-color="#056cee"/>
      <stop offset=".17" stop-color="#0775ef"/>
      <stop offset=".46" stop-color="#0c8ef1"/>
      <stop offset=".83" stop-color="#16b7f6"/>
      <stop offset=".99" stop-color="#1bcdf9"/>
    </linearGradient>
    <linearGradient id="linear-gradient-3" x1="543.1" y1="162.59" x2="543.1" y2="376.58" gradientUnits="userSpaceOnUse">
      <stop offset="0" stop-color="#5deeb1"/>
      <stop offset=".09" stop-color="#53e9ad"/>
      <stop offset=".25" stop-color="#3adca2"/>
      <stop offset=".45" stop-color="#11c891"/>
      <stop offset=".5" stop-color="#05c38c"/>
      <stop offset=".99" stop-color="#03c28a"/>
    </linearGradient>
    <linearGradient id="linear-gradient-4" x1="542.79" y1="162.59" x2="542.79" y2="329.42" gradientUnits="userSpaceOnUse">
      <stop offset="0" stop-color="#00ffc5"/>
      <stop offset=".14" stop-color="#01f8be"/>
      <stop offset=".35" stop-color="#07e5ac"/>
      <stop offset=".58" stop-color="#10c991"/>
      <stop offset="1" stop-color="#03c98f"/>
    </linearGradient>
  </defs>
  <g id="Circle">
    <path class="cls-1" d="M550,162.26c-214.14,0-387.74,173.6-387.74,387.74s173.6,387.74,387.74,387.74,387.74-173.6,387.74-387.74-173.6-387.74-387.74-387.74Z"/>
    <path class="cls-1" d="M550,93.83c-251.93,0-456.17,204.23-456.17,456.17s204.23,456.17,456.17,456.17,456.17-204.23,456.17-456.17S801.93,93.83,550,93.83ZM550.19,937.58c-214.06,0-387.58-173.53-387.58-387.58,0-116.62,51.51-221.2,133.01-292.26,68.1-59.37,157.13-95.33,254.57-95.33,90.52,0,173.8,31.04,239.77,83.05,90.02,70.97,147.82,181.01,147.82,304.54,0,214.06-173.53,387.58-387.58,387.58Z"/>
    <rect class="cls-1" x="27.45" y="428.12" width="1045.09" height="243.76" rx="120" ry="120"/>
    <g id="Cloud">
      <path id="Land_Sea" data-name="Land &amp;amp; Sea" class="cls-6" d="M203.2,671.55c-10.6,0-17.84,10.69-13.94,20.55,56.77,143.67,196.88,245.32,360.74,245.32s303.97-101.64,360.74-245.32c3.9-9.86-3.34-20.55-13.94-20.55H203.2Z"/>
      <path id="Sky" class="cls-6" d="M896.8,428.45c10.6,0,17.84-10.69,13.94-20.55-56.77-143.67-196.88-245.32-360.74-245.32s-303.97,101.64-360.74,245.32c-3.9,9.86,3.34,20.55,13.94,20.55h693.6Z"/>
    </g>
    <g id="Land">
      <path class="cls-5" d="M756.37,751.31c-10.55-2.03-60.99-9.06-116.98,22.16-34.41,19.19-27.99,22.16-64.99,37.27-8.08,3.3-32.8,7.21-46.5-.67-16.34-9.4-6.98-33.7-24.44-54.79-19.95-24.11-42.84-28.43-50.62-31.18-22.58-8.01-40.83-5.25-45.42-5.01-45.68,2.44-79.72,32.83-95.98,47.34-5.51,4.92-11.86,11.16-24,21.15-10.08,8.3-19.19,15.09-26.54,20.32,14.06,15.78,29.36,30.4,45.76,43.7,10.71-8.84,22.36-18.29,25.93-21.64,15.44-14.51,29.37-38.81,72.75-41.26,4.35-.25,18.18-2.38,38.83,7.53,16.92,8.12,11.11,27.94,27.47,55.66,13.65,23.13,42.45,24.52,56.58,26.77,14.99,2.38,30.43,3.53,38.7,2.45,41.64-5.45,44.66-15.48,77.35-34.67,53.17-31.22,85.45-26.79,95.47-24.75,23.45,4.76,41.85,14.63,58.53,25.82,18-15.09,34.62-31.79,49.65-49.88-2.66-1.88-5.52-3.88-8.59-6.02-23.61-16.51-47.96-33.53-82.98-40.29Z"/>
      <path class="cls-4" d="M644.29,846.44c-32.68,19.19-42.84,20.35-84.48,25.8-8.27,1.08-36,2.84-51.05-1.93-19.3-6.11-22.96-10.18-31.89-29.66-10.88-23.73-8.2-34.3-35.84-46.96-20.82-9.54-31.33-5.23-35.68-4.99-43.38,2.44-57.31,26.75-72.75,41.26-3.57,3.35-15.22,12.8-25.93,21.64,66.58,53.99,151.21,86.3,243.33,86.3s180.97-33.95,248.28-90.39c-16.68-11.19-35.08-21.05-58.53-25.82-10.02-2.03-42.3-6.47-95.47,24.75Z"/>
    </g>
    <path id="Sky_2" data-name="Sky 2" class="cls-3" d="M714.9,297.72c-13.62.76-21.28-12.59-42.17-7.85-11.33,2.57-23.51,7.65-34.68,13.26-17.52,8.8-39.29,26.06-62.87,26.28-26.85.25-44.8-21.63-61.85-34.9-29.02-22.56-39.12-37.83-63.69-40.67-4.21-.49-7.63-3.56-28.35,4.88-45.55,18.56-59.96,16.6-70.87,17.06-18.2.78-39.44-6.76-54.68-17.95-11.66,10.16-22.71,21-33.08,32.47,13.61,18.61,47.27,33.73,74.54,32.63,11.72-.47,27.2,1.49,76.14-17.06,22.26-8.44,25.94-5.36,30.46-4.88,26.39,2.84,37.25,18.11,68.43,40.67,18.33,13.27,37.61,35.15,66.46,34.9,25.34-.22,48.73-17.48,67.55-26.28,12-5.61,25.09-10.69,37.26-13.26,22.45-4.74,30.68,8.61,45.31,7.85,31.45-1.63,72.53-39.52,94.73-69.4-10.64-10.59-21.9-20.57-33.7-29.88-21.39,25.48-51.12,50.79-74.93,52.11Z"/>
    <path id="Sky-2" data-name="Sky" class="cls-2" d="M295.75,257.84c15.24,11.19,36.48,18.73,54.68,17.95,10.91-.47,25.32,1.49,70.87-17.06,20.72-8.44,24.14-5.36,28.35-4.88,24.57,2.84,34.67,18.11,63.69,40.67,17.06,13.27,35,35.15,61.85,34.9,23.58-.22,45.35-17.48,62.87-26.28,11.16-5.61,23.35-10.69,34.68-13.26,20.89-4.74,28.55,8.61,42.17,7.85,23.81-1.32,53.54-26.64,74.93-52.11-65.95-51.99-149.18-83.02-239.67-83.02-97.37,0-186.34,35.93-254.41,95.25Z"/>
  </g>
  <g id="Text">
    <path class="cls-6" d="M183.63,530.87c.54.49,1.38.46,1.87-.08,4.55-4.89,8.73-9.29,12.79-13.81,7.68-8.54,15.27-17.16,22.93-25.73,1.33-1.49,2.66-3.02,4.2-4.26,5.89-4.7,12.4-7.73,19.82-4.13,7.31,3.54,10.43,10.15,10.56,17.97.21,12.66.06,25.32,0,37.98-.11,21.65-.26,43.31-.4,64.96-.07,10.91-7.16,18.55-17.26,18.65-9.77.09-18.01-8.35-17.95-18.89.11-19.15.5-38.3.76-57.45,0,0,0-.01,0-.02.01-1.15-1.38-1.74-2.22-.96-.61.56-1.13,1.05-1.6,1.58-6.61,7.27-12.07,15.85-19.95,21.67-4.39,3.24-8.26,5.84-13.03,6.44s-6.95.18-11.57-4.31c-7.09-7.79-14.29-15.49-22-23.81-.78-.84-2.2-.36-2.3.79-.06.73-.1,1.36-.1,2,0,18.32.19,36.65-.02,54.97-.16,13.63-13.03,21.12-24.66,14.44-6.64-3.81-8.52-10.3-8.54-17.51-.09-26.49-.17-52.97-.23-79.46-.01-5.33-.13-10.67.19-15.99.89-14.69,15.21-22.67,27.76-14.93"/>
    <path class="cls-6" d="M921.16,570.78c0,10.86,0,21.26,0,31.66-.01,11.01-6.42,18.49-16.29,19.02-9.04.49-18.55-7.98-18.7-17.91-.42-27.48-.46-54.98-.26-82.46.05-6.86,4.36-11.84,10.56-14.63,6.31-2.83,12.04-.53,16.44,3.94,9.21,9.38,17.97,19.19,26.89,28.86,3.21,3.48,6.35,7.03,10.61,10.06,0-7.07-.06-14.14.03-21.21.04-2.82.09-5.71.73-8.42,2.1-8.99,9.9-14.87,18.51-14.27,8.03.56,15.26,7.89,15.38,16.99.33,24.82.28,49.65.05,74.47-.03,3.31-1.37,6.98-3.15,9.83-5.88,9.47-17.93,10.95-25.58,2.88-11.23-11.84-21.94-24.17-32.87-36.29-.72-.8-1.47-1.57-2.35-2.51Z"/>
    <path class="cls-6" d="M416.82,597.77c0,9.98.06,19.61-.02,29.25-.09,10.97-6.11,17.5-16.05,17.61-9.31.1-18.33-8.1-18.31-17.58.09-34.96.36-69.93.87-104.89.15-10.13,7.33-16.68,17.38-16.78,11.82-.11,23.65-.2,35.47.03,24.94.49,44.71,18.72,47.37,43.44,2.44,22.65-15.59,45.24-38.3,47.51-9.23.92-18.56.95-28.41,1.41ZM416.9,567.31c6.96,0,13.26.4,19.5-.1,8.43-.67,14.8-7.79,14.62-15.5-.2-8.53-7.15-16.23-15.49-16.63-5.13-.25-10.3.02-15.42.49-1.15.11-3.04,1.99-3.07,3.1-.25,9.27-.14,18.56-.14,28.64Z"/>
    <path class="cls-6" d="M702.33,559.18c.04,35.97-33.39,65.84-67.16,59.9-3.24-.57-6.42-1.73-9.47-3-3.33-1.38-5.24-3.98-5.19-7.78.27-19.62-16.55-31.71-30.67-35.3-4.65-1.18-6.46-3.08-6.99-7.83-3.31-29.2,16.93-55.94,48-62.98,35.56-8.05,71.45,20.55,71.49,56.99ZM642.36,584.61c14.52-.17,26.57-11.7,26.37-25.23-.2-13.82-12.68-25.66-26.85-25.49-13.6.16-24.8,11.49-24.68,24.96.12,13.99,11.78,25.93,25.16,25.77Z"/>
    <path class="cls-6" d="M510.3,535.73c0-19.49.75-38.98.76-58.47,0-1.67.01-3.34.18-4.99.91-9.22,7.1-15.45,15.68-15.83,9.62-.43,17.23,5.13,18.99,14.13.57,2.92.68,5.96.69,8.95.07,32.66.08,65.31.12,97.97,0,7.07.32,7.39,7.22,7.45,9.16.08,18.37-.39,27.47.42,5.62.5,11.51,2.11,16.49,4.72,6.56,3.44,9.3,11.16,7.79,17.5-1.69,7.12-7.48,12.71-15.06,13.36-7.45.64-14.97.49-22.47.53-10.5.06-20.99.08-31.49-.08-17.65-.26-26.35-9.11-26.37-26.66-.02-19.66,0-39.32,0-58.98.25,0-.25,0,0,0Z"/>
    <path class="cls-6" d="M318.12,505.21c.07,0,.15,0,.22,0,8.19.38,14.08,4.02,17.3,11.11,5.29,11.65,10.2,23.48,15.19,35.26,6.62,15.62,13.3,31.23,19.71,46.94,4.4,10.79,1.55,18.97-7.52,22.97-7.36,3.24-17.9-.69-22.15-8.93-2.67-5.18-8.05-8.35-13.86-7.88-7.82.64-15.68.49-23.5-.1-3.89-.29-5.51.48-6.77,3.86-2.84,7.64-7.2,12.1-12.93,13.58-11.76,3.03-22.29-8.41-18.86-20.06.49-1.66,1.06-3.31,1.73-4.9,10.55-25.15,21.11-50.3,31.78-75.4,3.19-7.49,7.06-14.52,16.16-16.17,1.25-.23,2.55-.22,3.5-.29ZM320.07,555.33c-.39-1-1.76-.89-2.13.02-4.39,10.39-4.84,11.49-7.64,18.1-.49,1.16.36,2.46,1.62,2.46,3.93,0,9.01,0,11.86,0,2.32,0,4-2.39,3.05-4.69"/>
    <path class="cls-6" d="M764.52,568.84c4.55-9.39,9.07-18.79,13.66-28.16,4.39-8.97,8.67-17.99,13.32-26.82,3.26-6.19,8.55-9.63,15.76-9.62,10.1.01,17.68,9.17,15.03,18.93-1.47,5.4-4.03,10.55-6.5,15.61-10.79,22.13-21.72,44.2-32.63,66.28-1.62,3.28-3.25,6.57-5.17,9.68-7.45,12.08-23.42,11.95-29.94-.76-10.41-20.28-20.05-40.94-30.04-61.43-3.65-7.47-7.4-14.89-11.05-22.37-4.97-10.2-2.8-18.76,5.94-23.66,8.23-4.62,18.96-1.68,23.95,7.62,5.88,10.98,10.78,22.49,16.1,33.76,3.32,7.02,6.65,14.04,9.97,21.06.54-.04,1.07-.08,1.61-.12Z"/>
    <path class="cls-6" d="M835.94,563.35c0-11.49-.04-22.98.03-34.48.01-2.48.09-5.03.64-7.43,2.22-9.66,9.41-15.87,17.59-15.43,9.02.48,16.51,7.72,17.69,17.41.44,3.62.37,7.31.4,10.98.15,20.82.26,41.64.35,62.45,0,2.33-.12,4.67-.37,6.98-1.21,11-8.1,17.81-17.91,17.78-9.48-.03-17.71-7.87-18.32-18.3-.5-8.63-.11-17.31-.11-25.97,0-4.66,0-9.33,0-13.99h.02Z"/>
    <path class="cls-6" d="M853.47,494.28c-10.6-.06-18.61-8.09-18.67-18.7-.06-10.79,8.27-20.11,18.04-20.2,10.29-.09,20.34,9.67,20.21,19.63-.14,10.65-8.96,19.33-19.58,19.28Z"/>
  </g>
</svg>